<svg width="980" height="760" viewBox="0 0 980 760" fill="none" xmlns="http://www.w3.org/2000/svg">
  <defs>
    <linearGradient id="bg" x1="74" y1="58" x2="880" y2="690" gradientUnits="userSpaceOnUse">
      <stop stop-color="#F7F2EA"/>
      <stop offset="0.52" stop-color="#EDF3EF"/>
      <stop offset="1" stop-color="#DCE9E5"/>
    </linearGradient>
    <linearGradient id="dark" x1="240" y1="124" x2="770" y2="640" gradientUnits="userSpaceOnUse">
      <stop stop-color="#203A46"/>
      <stop offset="1" stop-color="#0E1823"/>
    </linearGradient>
    <linearGradient id="teal" x1="240" y1="150" x2="690" y2="620" gradientUnits="userSpaceOnUse">
      <stop stop-color="#3E7C73"/>
      <stop offset="1" stop-color="#183A42"/>
    </linearGradient>
    <filter id="shadow" x="0" y="0" width="980" height="760" filterUnits="userSpaceOnUse">
      <feDropShadow dx="0" dy="26" stdDeviation="38" flood-color="#122733" flood-opacity=".16"/>
    </filter>
  </defs>

  <rect width="980" height="760" rx="52" fill="url(#bg)"/>
  <circle cx="790" cy="140" r="104" fill="white" fill-opacity=".5"/>
  <circle cx="154" cy="612" r="126" fill="white" fill-opacity=".42"/>
  <path d="M116 214C218 112 356 92 492 132C642 176 734 138 852 80" stroke="#2F6F68" stroke-opacity=".12" stroke-width="18" stroke-linecap="round"/>
  <path d="M96 510C236 438 366 446 500 512C626 574 740 552 872 462" stroke="#C8796C" stroke-opacity=".12" stroke-width="18" stroke-linecap="round"/>

  <g filter="url(#shadow)">
    <rect x="166" y="104" width="650" height="540" rx="44" fill="white"/>
    <rect x="198" y="138" width="586" height="472" rx="34" fill="#FAFBF8"/>

    <rect x="238" y="182" width="258" height="222" rx="30" fill="url(#dark)"/>
    <path d="M366 232L466 306H266L366 232Z" fill="#DCE9E5"/>
    <rect x="300" y="310" width="58" height="94" rx="12" fill="#3E7C73"/>
    <rect x="376" y="310" width="66" height="44" rx="12" fill="#FFFFFF" fill-opacity=".92"/>
    <rect x="376" y="370" width="66" height="44" rx="12" fill="#FFFFFF" fill-opacity=".92"/>

    <rect x="526" y="182" width="218" height="96" rx="26" fill="white" stroke="#DFE8E4"/>
    <circle cx="568" cy="230" r="20" fill="#E6F1EE"/>
    <path d="M560 230L566 236L580 220" stroke="#2F6F68" stroke-width="5" stroke-linecap="round" stroke-linejoin="round"/>
    <rect x="602" y="212" width="94" height="10" rx="5" fill="#182B35" fill-opacity=".82"/>
    <rect x="602" y="236" width="116" height="8" rx="4" fill="#667783" fill-opacity=".42"/>

    <rect x="526" y="302" width="218" height="96" rx="26" fill="white" stroke="#DFE8E4"/>
    <circle cx="568" cy="350" r="20" fill="#F4E2DC"/>
    <path d="M558 350H578" stroke="#C8796C" stroke-width="5" stroke-linecap="round"/>
    <rect x="602" y="332" width="84" height="10" rx="5" fill="#182B35" fill-opacity=".82"/>
    <rect x="602" y="356" width="120" height="8" rx="4" fill="#667783" fill-opacity=".42"/>

    <rect x="238" y="438" width="506" height="118" rx="30" fill="white" stroke="#DFE8E4"/>
    <rect x="280" y="482" width="320" height="12" rx="6" fill="#E7F0ED"/>
    <rect x="280" y="482" width="226" height="12" rx="6" fill="url(#teal)"/>
    <circle cx="506" cy="488" r="16" fill="#2F6F68" stroke="white" stroke-width="6"/>
    <text x="280" y="528" font-family="system-ui, -apple-system, BlinkMacSystemFont, Segoe UI, sans-serif" font-size="15" font-weight="650" fill="#182B35">Seguimiento mensual del alquiler</text>
    <text x="536" y="528" font-family="system-ui, -apple-system, BlinkMacSystemFont, Segoe UI, sans-serif" font-size="13" font-weight="500" fill="#667783">Propietario informado</text>

    <rect x="278" y="78" width="192" height="70" rx="24" fill="#FFFFFF"/>
    <circle cx="314" cy="113" r="16" fill="#E6F1EE"/>
    <path d="M307 113L313 119L326 105" stroke="#2F6F68" stroke-width="4" stroke-linecap="round" stroke-linejoin="round"/>
    <text x="344" y="108" font-family="system-ui, -apple-system, BlinkMacSystemFont, Segoe UI, sans-serif" font-size="14" font-weight="650" fill="#182B35">Incidencia</text>
    <text x="344" y="129" font-family="system-ui, -apple-system, BlinkMacSystemFont, Segoe UI, sans-serif" font-size="12" font-weight="500" fill="#667783">coordinada</text>

    <rect x="504" y="78" width="214" height="70" rx="24" fill="#FFFFFF"/>
    <circle cx="540" cy="113" r="16" fill="#F4E2DC"/>
    <path d="M533 113H547" stroke="#C8796C" stroke-width="4" stroke-linecap="round"/>
    <text x="570" y="108" font-family="system-ui, -apple-system, BlinkMacSystemFont, Segoe UI, sans-serif" font-size="14" font-weight="650" fill="#182B35">Cobros</text>
    <text x="570" y="129" font-family="system-ui, -apple-system, BlinkMacSystemFont, Segoe UI, sans-serif" font-size="12" font-weight="500" fill="#667783">en seguimiento</text>
  </g>
</svg>
