<svg width="960" height="720" viewBox="0 0 960 720" fill="none" xmlns="http://www.w3.org/2000/svg">
  <defs>
    <linearGradient id="paper" x1="80" y1="40" x2="860" y2="680" gradientUnits="userSpaceOnUse">
      <stop stop-color="#F7F3EA"/>
      <stop offset="0.55" stop-color="#F2F6F3"/>
      <stop offset="1" stop-color="#E7F0ED"/>
    </linearGradient>
    <linearGradient id="teal" x1="236" y1="130" x2="720" y2="594" gradientUnits="userSpaceOnUse">
      <stop stop-color="#2F6F68"/>
      <stop offset="1" stop-color="#162F3A"/>
    </linearGradient>
    <filter id="softShadow" x="0" y="0" width="960" height="720" filterUnits="userSpaceOnUse">
      <feDropShadow dx="0" dy="24" stdDeviation="34" flood-color="#162F3A" flood-opacity="0.13"/>
    </filter>
  </defs>

  <rect width="960" height="720" rx="44" fill="url(#paper)"/>
  <circle cx="780" cy="130" r="92" fill="white" fill-opacity=".55"/>
  <circle cx="150" cy="590" r="118" fill="white" fill-opacity=".48"/>
  <path d="M112 216C210 116 346 86 482 126C620 166 725 142 822 76" stroke="#2F6F68" stroke-opacity=".12" stroke-width="18" stroke-linecap="round"/>
  <path d="M118 516C246 442 348 440 474 502C596 562 720 548 830 474" stroke="#C8796C" stroke-opacity=".12" stroke-width="18" stroke-linecap="round"/>

  <g filter="url(#softShadow)">
    <rect x="170" y="110" width="620" height="500" rx="38" fill="white"/>
    <rect x="202" y="146" width="556" height="428" rx="28" fill="#FAFBF8"/>

    <rect x="244" y="202" width="160" height="108" rx="22" fill="#FFFFFF" stroke="#DFE8E4"/>
    <rect x="430" y="202" width="286" height="108" rx="22" fill="#FFFFFF" stroke="#DFE8E4"/>
    <rect x="244" y="336" width="286" height="120" rx="22" fill="#FFFFFF" stroke="#DFE8E4"/>
    <rect x="556" y="336" width="160" height="120" rx="22" fill="#FFFFFF" stroke="#DFE8E4"/>

    <circle cx="286" cy="252" r="22" fill="#E6F1EE"/>
    <path d="M277 252L284 259L298 243" stroke="#2F6F68" stroke-width="5" stroke-linecap="round" stroke-linejoin="round"/>
    <rect x="320" y="232" width="58" height="10" rx="5" fill="#162F3A" fill-opacity=".78"/>
    <rect x="320" y="254" width="74" height="8" rx="4" fill="#667783" fill-opacity=".45"/>

    <circle cx="474" cy="252" r="22" fill="#F4E2DC"/>
    <path d="M466 252H488" stroke="#C8796C" stroke-width="5" stroke-linecap="round"/>
    <rect x="508" y="232" width="132" height="10" rx="5" fill="#162F3A" fill-opacity=".78"/>
    <rect x="508" y="254" width="178" height="8" rx="4" fill="#667783" fill-opacity=".45"/>

    <circle cx="286" cy="396" r="22" fill="#EAF1FF"/>
    <path d="M278 397C285 388 294 388 302 397" stroke="#466A9F" stroke-width="5" stroke-linecap="round"/>
    <rect x="320" y="376" width="132" height="10" rx="5" fill="#162F3A" fill-opacity=".78"/>
    <rect x="320" y="398" width="184" height="8" rx="4" fill="#667783" fill-opacity=".45"/>
    <rect x="320" y="420" width="142" height="8" rx="4" fill="#667783" fill-opacity=".28"/>

    <circle cx="598" cy="396" r="22" fill="#E6F1EE"/>
    <path d="M589 396L596 403L611 387" stroke="#2F6F68" stroke-width="5" stroke-linecap="round" stroke-linejoin="round"/>
    <rect x="632" y="376" width="70" height="10" rx="5" fill="#162F3A" fill-opacity=".78"/>
    <rect x="632" y="398" width="86" height="8" rx="4" fill="#667783" fill-opacity=".45"/>

    <rect x="310" y="500" width="340" height="18" rx="9" fill="#E7F0ED"/>
    <rect x="310" y="500" width="236" height="18" rx="9" fill="url(#teal)"/>
    <circle cx="548" cy="509" r="17" fill="#2F6F68" stroke="white" stroke-width="6"/>

    <rect x="304" y="78" width="170" height="68" rx="22" fill="#FFFFFF"/>
    <circle cx="338" cy="112" r="15" fill="#E6F1EE"/>
    <path d="M332 112L337 117L347 106" stroke="#2F6F68" stroke-width="4" stroke-linecap="round" stroke-linejoin="round"/>
    <text x="365" y="108" font-family="system-ui,-apple-system,BlinkMacSystemFont,Segoe UI,sans-serif" font-size="14" font-weight="650" fill="#162F3A">Incidencia</text>
    <text x="365" y="128" font-family="system-ui,-apple-system,BlinkMacSystemFont,Segoe UI,sans-serif" font-size="12" font-weight="500" fill="#667783">coordinada</text>

    <rect x="510" y="78" width="180" height="68" rx="22" fill="#FFFFFF"/>
    <circle cx="544" cy="112" r="15" fill="#F4E2DC"/>
    <path d="M537 112H551" stroke="#C8796C" stroke-width="4" stroke-linecap="round"/>
    <text x="571" y="108" font-family="system-ui,-apple-system,BlinkMacSystemFont,Segoe UI,sans-serif" font-size="14" font-weight="650" fill="#162F3A">Propietario</text>
    <text x="571" y="128" font-family="system-ui,-apple-system,BlinkMacSystemFont,Segoe UI,sans-serif" font-size="12" font-weight="500" fill="#667783">informado</text>
  </g>
</svg>
